<?xml version="1.0" encoding="UTF-8" standalone="no"?><svg xmlns="http://www.w3.org/2000/svg" xmlns:xlink="http://www.w3.org/1999/xlink" contentScriptType="application/ecmascript" contentStyleType="text/css" height="420px" preserveAspectRatio="none" style="width:463px;height:420px;" version="1.1" viewBox="0 0 463 420" width="463px" zoomAndPan="magnify"><defs><filter height="300%" id="f1cfhnctxkaa1v" width="300%" x="-1" y="-1"><feGaussianBlur result="blurOut" stdDeviation="2.0"/><feColorMatrix in="blurOut" result="blurOut2" type="matrix" values="0 0 0 0 0 0 0 0 0 0 0 0 0 0 0 0 0 0 .4 0"/><feOffset dx="4.0" dy="4.0" in="blurOut2" result="blurOut3"/><feBlend in="SourceGraphic" in2="blurOut3" mode="normal"/></filter></defs><g><!--MD5=[262aabfe314dcb38308ea550cce12173]
cluster Some Group--><polygon fill="#FFFFFF" filter="url(#f1cfhnctxkaa1v)" points="14,16,118,16,125,38.2969,416,38.2969,416,87,14,87,14,16" style="stroke: #000000; stroke-width: 1.5;"/><line style="stroke: #000000; stroke-width: 1.5;" x1="14" x2="125" y1="38.2969" y2="38.2969"/><text fill="#000000" font-family="sans-serif" font-size="14" font-weight="bold" lengthAdjust="spacingAndGlyphs" textLength="98" x="18" y="30.9951">Some Group</text><!--MD5=[a809f7b457cbc4d947186a4bb863b06b]
cluster Other Groups--><polygon fill="#FFFFFF" filter="url(#f1cfhnctxkaa1v)" points="50,117,60,107,277,107,277,173,267,183,50,183,50,117" style="stroke: #000000; stroke-width: 1.5;"/><line style="stroke: #000000; stroke-width: 1.5;" x1="267" x2="276" y1="117" y2="108"/><line style="stroke: #000000; stroke-width: 1.5;" x1="50" x2="267" y1="117" y2="117"/><line style="stroke: #000000; stroke-width: 1.5;" x1="267" x2="267" y1="117" y2="183"/><text fill="#000000" font-family="sans-serif" font-size="14" font-weight="bold" lengthAdjust="spacingAndGlyphs" textLength="108" x="105.5" y="132.9951">Other Groups</text><path d="M305.2547,140.3926 C307.3133,135.5038 311.4056,133.725 315.5772,138.0168 C318.1654,131.3341 322.4849,130.047 327.6247,135.4796 C331.1756,129.4206 336.5529,128.1767 340.4641,135.1239 C341.7651,128.8166 345.9838,127.8296 350.4122,132.2139 C354.66,127.1407 360.6816,128.473 362.843,134.5418 C367.5973,130.2729 371.959,131.7558 373.999,137.5508 C378.647,131.8495 382.7721,132.4736 386.0391,138.9196 C389.767,134.9842 394.4555,135.9271 396.577,140.8341 C405.9714,144.6079 407.7071,150.5442 401.6509,158.7048 C410.077,165.9264 408.5047,172.6226 398.1928,176.1245 C395.0146,181.8386 389.7468,182.5192 385.7835,176.9911 C382.9358,183.4011 378.5758,184.9343 373.4659,179.3058 C371.7142,185.7374 366.3475,187.0451 362.2516,181.501 C359.106,186.1387 354.9887,186.6992 351.3525,182.0787 C346.8827,188.0571 342.3626,187.8678 338.5601,181.3933 C334.7723,185.5728 330.3706,185.7708 327.8431,180.0316 C323.9759,185.4556 318.566,184.0026 316.3049,178.3574 C311.267,183.3353 307.1629,182.499 304.2283,176.1208 C295.2527,171.4529 294.5417,165.855 300.7316,158.224 C292.5087,150.2005 294.5717,143.6204 305.2547,140.3926 " fill="#FFFFFF" style="stroke: #000000; stroke-width: 1.5;"/><!--MD5=[a8e31809c94bd3920922c17a126bb0b3]
cluster MySql--><path d="M286,201 C286,191 367.5,191 367.5,191 C367.5,191 449,191 449,201 L449,398 C449,408 367.5,408 367.5,408 C367.5,408 286,408 286,398 L286,201 " fill="#FFFFFF" filter="url(#f1cfhnctxkaa1v)" style="stroke: #000000; stroke-width: 1.5;"/><path d="M286,201 C286,211 367.5,211 367.5,211 C367.5,211 449,211 449,201 " fill="none" style="stroke: #000000; stroke-width: 1.5;"/><text fill="#000000" font-family="sans-serif" font-size="14" font-weight="bold" lengthAdjust="spacingAndGlyphs" textLength="46" x="344.5" y="225.9951">MySql</text><!--MD5=[57a7dd60b0970f41fd8892a58576fbc8]
cluster This is my folder--><polygon fill="#FFFFFF" filter="url(#f1cfhnctxkaa1v)" points="294,233,431,233,438,255.2969,441,255.2969,441,304,294,304,294,233" style="stroke: #000000; stroke-width: 1.5;"/><line style="stroke: #000000; stroke-width: 1.5;" x1="294" x2="438" y1="255.2969" y2="255.2969"/><text fill="#000000" font-family="sans-serif" font-size="14" font-weight="bold" lengthAdjust="spacingAndGlyphs" textLength="131" x="298" y="247.9951">This is my folder</text><!--MD5=[b098bf3b49ab5940c6091a421f0675e2]
cluster Foo--><rect fill="#FFFFFF" filter="url(#f1cfhnctxkaa1v)" height="71" style="stroke: #000000; stroke-width: 1.5;" width="92" x="304" y="329"/><path d="M343,330 L343,338.2969 L333,348.2969 L304,348.2969 " fill="none" style="stroke: #000000; stroke-width: 1.5;"/><text fill="#000000" font-family="sans-serif" font-size="14" font-weight="bold" lengthAdjust="spacingAndGlyphs" textLength="29" x="307" y="342.9951">Foo</text><!--MD5=[96f7e1299d4a43069e6ed32352fcac20]
entity HTTP--><ellipse cx="202" cy="61" fill="#FEFECE" filter="url(#f1cfhnctxkaa1v)" rx="8" ry="8" style="stroke: #A80036; stroke-width: 2.0;"/><text fill="#000000" font-family="sans-serif" font-size="14" lengthAdjust="spacingAndGlyphs" textLength="37" x="183.5" y="90.9951">HTTP</text><!--MD5=[cbd7cda55f2530e2efe43ec72c097853]
entity First Component--><rect fill="#FEFECE" filter="url(#f1cfhnctxkaa1v)" height="36.2969" style="stroke: #A80036; stroke-width: 1.5;" width="135" x="22.5" y="43"/><rect fill="#FEFECE" height="5" style="stroke: #A80036; stroke-width: 1.5;" width="10" x="17.5" y="48"/><rect fill="#FEFECE" height="5" style="stroke: #A80036; stroke-width: 1.5;" width="10" x="17.5" y="69.2969"/><text fill="#000000" font-family="sans-serif" font-size="14" lengthAdjust="spacingAndGlyphs" textLength="115" x="32.5" y="65.9951">First Component</text><!--MD5=[b9d11f23832c1491231c5b33e55ab8c6]
entity Another Component--><rect fill="#FEFECE" filter="url(#f1cfhnctxkaa1v)" height="36.2969" style="stroke: #A80036; stroke-width: 1.5;" width="161" x="246.5" y="43"/><rect fill="#FEFECE" height="5" style="stroke: #A80036; stroke-width: 1.5;" width="10" x="241.5" y="48"/><rect fill="#FEFECE" height="5" style="stroke: #A80036; stroke-width: 1.5;" width="10" x="241.5" y="69.2969"/><text fill="#000000" font-family="sans-serif" font-size="14" lengthAdjust="spacingAndGlyphs" textLength="141" x="256.5" y="65.9951">Another Component</text><!--MD5=[76af18d92d7d7c0f7ebd8f4f605ac5aa]
entity FTP--><ellipse cx="67" cy="157" fill="#FEFECE" filter="url(#f1cfhnctxkaa1v)" rx="8" ry="8" style="stroke: #A80036; stroke-width: 2.0;"/><text fill="#000000" font-family="sans-serif" font-size="14" lengthAdjust="spacingAndGlyphs" textLength="26" x="54" y="186.9951">FTP</text><!--MD5=[0e2cc1aee2c7f52697e111b4fb84546c]
entity Second Component--><rect fill="#FEFECE" filter="url(#f1cfhnctxkaa1v)" height="36.2969" style="stroke: #A80036; stroke-width: 1.5;" width="159" x="110.5" y="139"/><rect fill="#FEFECE" height="5" style="stroke: #A80036; stroke-width: 1.5;" width="10" x="105.5" y="144"/><rect fill="#FEFECE" height="5" style="stroke: #A80036; stroke-width: 1.5;" width="10" x="105.5" y="165.2969"/><text fill="#000000" font-family="sans-serif" font-size="14" lengthAdjust="spacingAndGlyphs" textLength="139" x="120.5" y="161.9951">Second Component</text><!--MD5=[243c1e580c31013c48b02624e18b25a7]
entity Example 1--><rect fill="#FEFECE" filter="url(#f1cfhnctxkaa1v)" height="36.2969" style="stroke: #A80036; stroke-width: 1.5;" width="91" x="304.5" y="139"/><rect fill="#FEFECE" height="5" style="stroke: #A80036; stroke-width: 1.5;" width="10" x="299.5" y="144"/><rect fill="#FEFECE" height="5" style="stroke: #A80036; stroke-width: 1.5;" width="10" x="299.5" y="165.2969"/><text fill="#000000" font-family="sans-serif" font-size="14" lengthAdjust="spacingAndGlyphs" textLength="71" x="314.5" y="161.9951">Example 1</text><!--MD5=[3e0e08c92570480402984701ab5a6d2d]
entity Folder 3--><rect fill="#FEFECE" filter="url(#f1cfhnctxkaa1v)" height="36.2969" style="stroke: #A80036; stroke-width: 1.5;" width="76" x="312" y="260"/><rect fill="#FEFECE" height="5" style="stroke: #A80036; stroke-width: 1.5;" width="10" x="307" y="265"/><rect fill="#FEFECE" height="5" style="stroke: #A80036; stroke-width: 1.5;" width="10" x="307" y="286.2969"/><text fill="#000000" font-family="sans-serif" font-size="14" lengthAdjust="spacingAndGlyphs" textLength="56" x="322" y="282.9951">Folder 3</text><!--MD5=[63877ed85df621d134a6c80fb52dad56]
entity Frame 4--><rect fill="#FEFECE" filter="url(#f1cfhnctxkaa1v)" height="36.2969" style="stroke: #A80036; stroke-width: 1.5;" width="76" x="312" y="356"/><rect fill="#FEFECE" height="5" style="stroke: #A80036; stroke-width: 1.5;" width="10" x="307" y="361"/><rect fill="#FEFECE" height="5" style="stroke: #A80036; stroke-width: 1.5;" width="10" x="307" y="382.2969"/><text fill="#000000" font-family="sans-serif" font-size="14" lengthAdjust="spacingAndGlyphs" textLength="56" x="322" y="378.9951">Frame 4</text><!--MD5=[46d996859f59e5baf77956ce93023cee]
link HTTP to First Component--><path d="M192.6792,61 C181.057,61 169.4347,61 157.8125,61 " fill="none" id="HTTP-First Component" style="stroke: #A80036; stroke-width: 1.0;"/><!--MD5=[1966a42bb49d59057147dbda06282f4b]
link FTP to Second Component--><path d="M76.1289,157 C87.5457,157 98.9624,157 110.3792,157 " fill="none" id="FTP-Second Component" style="stroke: #A80036; stroke-width: 1.0;"/><!--MD5=[d3aefbd8005e27b21e7ce98ddd948193]
link First Component to FTP--><path d="M85.6739,79.0569 C81.278,97.4049 74.5537,125.4716 70.4871,142.4452 " fill="none" id="First Component-&gt;FTP" style="stroke: #A80036; stroke-width: 1.0;"/><polygon fill="#A80036" points="69.2171,147.7461,75.2043,139.926,70.3823,142.8838,67.4245,138.0618,69.2171,147.7461" style="stroke: #A80036; stroke-width: 1.0;"/><!--MD5=[efc1ffe8b578a0fb156c7bce303319bb]
link Another Component to Example 1--><path d="M331.3261,79.0569 C335.0291,94.5126 340.3843,116.8647 344.4113,133.6731 " fill="none" id="Another Component-&gt;Example 1" style="stroke: #A80036; stroke-width: 1.0;"/><polygon fill="#A80036" points="345.6151,138.6977,347.4078,129.0134,344.45,133.8353,339.628,130.8776,345.6151,138.6977" style="stroke: #A80036; stroke-width: 1.0;"/><!--MD5=[7ec8393a78a133520e8846dd05a7857a]
link Example 1 to Folder 3--><path d="M350,175.1149 C350,196.322 350,231.4923 350,254.7097 " fill="none" id="Example 1-&gt;Folder 3" style="stroke: #A80036; stroke-width: 1.0;"/><polygon fill="#A80036" points="350,259.7612,354,250.7612,350,254.7612,346,250.7612,350,259.7612" style="stroke: #A80036; stroke-width: 1.0;"/><!--MD5=[b96c7096199393c1414a8b4e9ed2c30f]
link Folder 3 to Frame 4--><path d="M350,296.0569 C350,311.5126 350,333.8647 350,350.6731 " fill="none" id="Folder 3-&gt;Frame 4" style="stroke: #A80036; stroke-width: 1.0;"/><polygon fill="#A80036" points="350,355.6977,354,346.6977,350,350.6977,346,346.6977,350,355.6977" style="stroke: #A80036; stroke-width: 1.0;"/><!--MD5=[9843bbb8422be80e696ffed5892e1e1e]
@startuml

package "Some Group" {
  HTTP - [First Component]
  [Another Component]
}

node "Other Groups" {
  FTP - [Second Component]
  [First Component] - -> FTP
}

cloud {
  [Example 1]
}


database "MySql" {
  folder "This is my folder" {
    [Folder 3]
  }
  frame "Foo" {
    [Frame 4]
  }
}


[Another Component] - -> [Example 1]
[Example 1] - -> [Folder 3]
[Folder 3] - -> [Frame 4]

@enduml

PlantUML version 1.2020.06(Sun Apr 05 12:38:32 GMT 2020)
(GPL source distribution)
Java Runtime: OpenJDK Runtime Environment
JVM: OpenJDK 64-Bit Server VM
Java Version: 14-ea+33
Operating System: Linux
Default Encoding: UTF-8
Language: en
Country: US
--></g></svg>