<?xml version="1.0" encoding="UTF-8" standalone="no"?><svg xmlns="http://www.w3.org/2000/svg" xmlns:xlink="http://www.w3.org/1999/xlink" contentScriptType="application/ecmascript" contentStyleType="text/css" height="538px" preserveAspectRatio="none" style="width:488px;height:538px;" version="1.1" viewBox="0 0 488 538" width="488px" zoomAndPan="magnify"><defs><filter height="300%" id="f9s5mlu" width="300%" x="-1" y="-1"><feGaussianBlur result="blurOut" stdDeviation="2.0"/><feColorMatrix in="blurOut" result="blurOut2" type="matrix" values="0 0 0 0 0 0 0 0 0 0 0 0 0 0 0 0 0 0 .4 0"/><feOffset dx="4.0" dy="4.0" in="blurOut2" result="blurOut3"/><feBlend in="SourceGraphic" in2="blurOut3" mode="normal"/></filter></defs><g><!--cluster Some Group--><polygon fill="#FFFFFF" filter="url(#f9s5mlu)" points="22,24,115,24,122,46.29,458,46.29,458,111,22,111,22,24" style="stroke: #000000; stroke-width: 2.0;"/><line style="stroke: #000000; stroke-width: 2.0;" x1="22" x2="122" y1="46.29" y2="46.29"/><text fill="#000000" font-family="sans-serif" font-size="14" font-weight="bold" lengthAdjust="spacingAndGlyphs" textLength="87" x="26" y="39.3369">Some Group</text><!--cluster Other Groups--><polygon fill="#FFFFFF" filter="url(#f9s5mlu)" points="52,145,62,135,300,135,300,217,290,227,52,227,52,145" style="stroke: #000000; stroke-width: 2.0;"/><line style="stroke: #000000; stroke-width: 2.0;" x1="290" x2="299" y1="145" y2="136"/><line style="stroke: #000000; stroke-width: 2.0;" x1="52" x2="290" y1="145" y2="145"/><line style="stroke: #000000; stroke-width: 2.0;" x1="290" x2="290" y1="145" y2="227"/><text fill="#000000" font-family="sans-serif" font-size="14" font-weight="bold" lengthAdjust="spacingAndGlyphs" textLength="97" x="123.5" y="161.3369">Other Groups</text><!--cluster ##13--><path d="M327,166 C327,163 329,161 332,161 C335,161 337,163 337,166 C337,163 339,161 342,161 C345,161 347,163 347,166 C347,163 349,161 352,161 C355,161 357,163 357,166 C357,163 359,161 362,161 C365,161 367,163 367,166 C367,163 369,161 372,161 C375,161 377,163 377,166 C377,163 379,161 382,161 C385,161 387,163 387,166 C387,163 389,161 392,161 C395,161 397,163 397,166 C397,163 399,161 402,161 C405,161 407,163 407,166 C407,163 409,161 412,161 C415,161 417,163 417,166 C417,163 419,161 422,161 C425,161 427,163 427,166 C427,163 429,161 432,161 C435,161 437,163 437,166 C437,163 439,161 442,161 C445,161 447,163 447,166 C450,166 452,168 452,171 C452,174 450,176 447,176 C450,176 452,178 452,181 C452,184 450,186 447,186 C450,186 452,188 452,191 C452,194 450,196 447,196 C450,196 452,198 452,201 C452,204 450,206 447,206 C450,206 452,208 452,211 C452,214 450,216 447,216 C447,219 444,221 442,221 C439,221 437,219 437,216 C437,219 434,221 432,221 C429,221 427,219 427,216 C427,219 424,221 422,221 C419,221 417,219 417,216 C417,219 414,221 412,221 C409,221 407,219 407,216 C407,219 404,221 402,221 C399,221 397,219 397,216 C397,219 394,221 392,221 C389,221 387,219 387,216 C387,219 384,221 382,221 C379,221 377,219 377,216 C377,219 374,221 372,221 C369,221 367,219 367,216 C367,219 364,221 362,221 C359,221 357,219 357,216 C357,219 354,221 352,221 C349,221 347,219 347,216 C347,219 344,221 342,221 C339,221 337,219 337,216 C337,219 334,221 332,221 C329,221 327,219 327,216 C324,216 322,214 322,211 C322,208 324,206 327,206 C324,206 322,204 322,201 C322,198 324,196 327,196 C324,196 322,194 322,191 C322,188 324,186 327,186 C324,186 322,184 322,181 C322,178 324,176 327,176 C324,176 322,174 322,171 C322,168 324,166 327,166 " fill="#FFFFFF" filter="url(#f9s5mlu)" style="stroke: #000000; stroke-width: 2.0;"/><!--cluster MySql--><path d="M292,261 C292,251 386.5,251 386.5,251 C386.5,251 481,251 481,261 L481,521 C481,531 386.5,531 386.5,531 C386.5,531 292,531 292,521 L292,261 " fill="#FFFFFF" filter="url(#f9s5mlu)" style="stroke: #000000; stroke-width: 2.0;"/><path d="M292,261 C292,271 386.5,271 386.5,271 C386.5,271 481,271 481,261 " fill="none" style="stroke: #000000; stroke-width: 2.0;"/><text fill="#000000" font-family="sans-serif" font-size="14" font-weight="bold" lengthAdjust="spacingAndGlyphs" textLength="43" x="365" y="285.3369">MySql</text><!--cluster This is my folder--><polygon fill="#FFFFFF" filter="url(#f9s5mlu)" points="316,309,447,309,454,331.29,457,331.29,457,396,316,396,316,309" style="stroke: #000000; stroke-width: 2.0;"/><line style="stroke: #000000; stroke-width: 2.0;" x1="316" x2="454" y1="331.29" y2="331.29"/><text fill="#000000" font-family="sans-serif" font-size="14" font-weight="bold" lengthAdjust="spacingAndGlyphs" textLength="125" x="320" y="324.3369">This is my folder</text><!--cluster Foo--><rect fill="#FFFFFF" filter="url(#f9s5mlu)" height="87" style="stroke: #000000; stroke-width: 2.0;" width="108" x="332" y="420"/><path d="M368,421 L368,429.29 L358,439.29 L332,439.29 " fill="none" style="stroke: #000000; stroke-width: 2.0;"/><text fill="#000000" font-family="sans-serif" font-size="14" font-weight="bold" lengthAdjust="spacingAndGlyphs" textLength="26" x="335" y="434.3369">Foo</text><!--entity HTTP--><ellipse cx="227" cy="69" fill="#FEFECE" filter="url(#f9s5mlu)" rx="8" ry="8" style="stroke: #A80036; stroke-width: 2.0;"/><text fill="#000000" font-family="sans-serif" font-size="14" lengthAdjust="spacingAndGlyphs" textLength="36" x="209" y="91.3027">HTTP</text><!--entity First Component--><rect fill="#FEFECE" filter="url(#f9s5mlu)" height="36.29" style="stroke: #A80036; stroke-width: 1.5;" width="135" x="38.5" y="59"/><rect fill="#FEFECE" height="5" style="stroke: #A80036; stroke-width: 1.5;" width="10" x="33.5" y="64"/><rect fill="#FEFECE" height="5" style="stroke: #A80036; stroke-width: 1.5;" width="10" x="33.5" y="85.29"/><text fill="#000000" font-family="sans-serif" font-size="14" lengthAdjust="spacingAndGlyphs" textLength="115" x="48.5" y="82.3027">First Component</text><!--entity Another Component--><rect fill="#FEFECE" filter="url(#f9s5mlu)" height="36.29" style="stroke: #A80036; stroke-width: 1.5;" width="161" x="280.5" y="59"/><rect fill="#FEFECE" height="5" style="stroke: #A80036; stroke-width: 1.5;" width="10" x="275.5" y="64"/><rect fill="#FEFECE" height="5" style="stroke: #A80036; stroke-width: 1.5;" width="10" x="275.5" y="85.29"/><text fill="#000000" font-family="sans-serif" font-size="14" lengthAdjust="spacingAndGlyphs" textLength="141" x="290.5" y="82.3027">Another Component</text><!--entity FTP--><ellipse cx="81" cy="185" fill="#FEFECE" filter="url(#f9s5mlu)" rx="8" ry="8" style="stroke: #A80036; stroke-width: 2.0;"/><text fill="#000000" font-family="sans-serif" font-size="14" lengthAdjust="spacingAndGlyphs" textLength="25" x="68.5" y="207.3027">FTP</text><!--entity Second Component--><rect fill="#FEFECE" filter="url(#f9s5mlu)" height="36.29" style="stroke: #A80036; stroke-width: 1.5;" width="155" x="128.5" y="175"/><rect fill="#FEFECE" height="5" style="stroke: #A80036; stroke-width: 1.5;" width="10" x="123.5" y="180"/><rect fill="#FEFECE" height="5" style="stroke: #A80036; stroke-width: 1.5;" width="10" x="123.5" y="201.29"/><text fill="#000000" font-family="sans-serif" font-size="14" lengthAdjust="spacingAndGlyphs" textLength="135" x="138.5" y="198.3027">Second Component</text><!--entity Example 1--><rect fill="#FEFECE" filter="url(#f9s5mlu)" height="36.29" style="stroke: #A80036; stroke-width: 1.5;" width="92" x="340" y="175"/><rect fill="#FEFECE" height="5" style="stroke: #A80036; stroke-width: 1.5;" width="10" x="335" y="180"/><rect fill="#FEFECE" height="5" style="stroke: #A80036; stroke-width: 1.5;" width="10" x="335" y="201.29"/><text fill="#000000" font-family="sans-serif" font-size="14" lengthAdjust="spacingAndGlyphs" textLength="72" x="350" y="198.3027">Example 1</text><!--entity Folder 3--><rect fill="#FEFECE" filter="url(#f9s5mlu)" height="36.29" style="stroke: #A80036; stroke-width: 1.5;" width="77" x="347.5" y="344"/><rect fill="#FEFECE" height="5" style="stroke: #A80036; stroke-width: 1.5;" width="10" x="342.5" y="349"/><rect fill="#FEFECE" height="5" style="stroke: #A80036; stroke-width: 1.5;" width="10" x="342.5" y="370.29"/><text fill="#000000" font-family="sans-serif" font-size="14" lengthAdjust="spacingAndGlyphs" textLength="57" x="357.5" y="367.3027">Folder 3</text><!--entity Frame 4--><rect fill="#FEFECE" filter="url(#f9s5mlu)" height="36.29" style="stroke: #A80036; stroke-width: 1.5;" width="76" x="348" y="455"/><rect fill="#FEFECE" height="5" style="stroke: #A80036; stroke-width: 1.5;" width="10" x="343" y="460"/><rect fill="#FEFECE" height="5" style="stroke: #A80036; stroke-width: 1.5;" width="10" x="343" y="481.29"/><text fill="#000000" font-family="sans-serif" font-size="14" lengthAdjust="spacingAndGlyphs" textLength="56" x="358" y="478.3027">Frame 4</text><path d="M208.64,77 C196.957,77 185.273,77 173.59,77 " fill="none" style="stroke: #A80036; stroke-width: 1.0;"/><path d="M93.6953,193 C105.2475,193 116.8,193 128.352,193 " fill="none" style="stroke: #A80036; stroke-width: 1.0;"/><path d="M102.203,95.314 C97.7517,115.612 90.3774,149.239 85.6041,171.005 " fill="none" style="stroke: #A80036; stroke-width: 1.0;"/><polygon fill="#A80036" points="84.5091,175.999,90.3447,168.0652,85.5805,171.1151,82.5305,166.3509,84.5091,175.999" style="stroke: #A80036; stroke-width: 1.0;"/><path d="M364.797,95.314 C369.172,115.266 376.372,148.097 381.15,169.882 " fill="none" style="stroke: #A80036; stroke-width: 1.0;"/><polygon fill="#A80036" points="382.249,174.896,384.2298,165.2484,381.1787,170.0119,376.4152,166.9608,382.249,174.896" style="stroke: #A80036; stroke-width: 1.0;"/><path d="M386,211.243 C386,241.619 386,304.645 386,338.438 " fill="none" style="stroke: #A80036; stroke-width: 1.0;"/><polygon fill="#A80036" points="386,343.601,390,334.601,386,338.601,382,334.601,386,343.601" style="stroke: #A80036; stroke-width: 1.0;"/><path d="M386,380.031 C386,398.798 386,429.055 386,449.6998 " fill="none" style="stroke: #A80036; stroke-width: 1.0;"/><polygon fill="#A80036" points="386,454.7286,390,445.7286,386,449.7286,382,445.7286,386,454.7286" style="stroke: #A80036; stroke-width: 1.0;"/></g></svg>