<?xml version="1.0" encoding="UTF-8" standalone="no"?><svg xmlns="http://www.w3.org/2000/svg" xmlns:xlink="http://www.w3.org/1999/xlink" contentScriptType="application/ecmascript" contentStyleType="text/css" height="413px" preserveAspectRatio="none" style="width:573px;height:413px;" version="1.1" viewBox="0 0 573 413" width="573px" zoomAndPan="magnify"><defs><filter height="300%" id="fbsny64ks3lim" width="300%" x="-1" y="-1"><feGaussianBlur result="blurOut" stdDeviation="2.0"/><feColorMatrix in="blurOut" result="blurOut2" type="matrix" values="0 0 0 0 0 0 0 0 0 0 0 0 0 0 0 0 0 0 .4 0"/><feOffset dx="4.0" dy="4.0" in="blurOut2" result="blurOut3"/><feBlend in="SourceGraphic" in2="blurOut3" mode="normal"/></filter></defs><g><text fill="#000000" font-family="sans-serif" font-size="18" lengthAdjust="spacingAndGlyphs" textLength="325" x="123.5" y="16.708">"OSCIED Charms Relations (Simple)"</text><path d="M35.8461,46.1774 C48.3553,30.8221 62.2364,30.5278 71.4098,49.6212 C80.2195,35.4561 92.0808,30.8041 102.9766,47.4865 C112.6998,29.8332 128.3843,32.3613 138.7057,46.8209 C148.6701,30.3117 167.2654,24.8051 178.7751,45.1405 C189.4674,31.5465 201.8686,30.6676 211.1234,46.7096 C225.0685,29.5398 239.56,32.0983 250.1729,50.3799 C256.2509,32.0614 270.5911,30.5068 282.5351,44.5057 C296.6179,30.1131 307.8696,29.1546 316.97,49.4516 C329.6271,29.7615 341.6948,26.9593 356.6526,47.1631 C368.4478,28.8511 382.2698,34.4124 392.1138,49.2504 C400.8631,37.7084 414.8685,34.9995 422.0428,50.9641 C432.9616,30.8962 446.0919,30.3944 460.3767,47.4922 C470.2488,34.3384 486.9712,33.6896 494.717,49.9726 C508.0878,30.7098 523.4762,33.6514 535,51.9531 C538.7294,51.2649 540.4917,52.3472 539.6664,56.4186 C558.5632,68.4554 557.0268,81.7523 537.9565,91.9626 C555.1653,102.1975 555.7431,118.3004 541.0022,131.0263 C558.6195,145.5004 559.3697,159.5319 539.0551,172.2128 C559.8398,181.0456 559.7679,192.5285 545.7988,207.9242 C560.8839,221.7519 560.7681,239.6683 539.4117,247.6349 C561.0412,259.0878 557.5366,279.0188 539.4348,290.4931 C557.4513,300.2853 555.7888,318.4002 538.7588,327.5533 C555.6696,347.1848 550.36,359.5271 528,368.9531 C532.1882,369.0789 534.19,370.7915 532.8545,375.2058 C521.723,391.8989 508.2103,391.7862 496.1483,376.2661 C486.4516,395.9227 467.0416,395.6266 457.3282,376.2827 C449.6536,393.0448 437.2936,393.6173 426.0542,379.9459 C416.679,395.6105 399.0422,401.1854 388.1873,381.5324 C376.586,398.4294 366.1126,397.6283 354.3638,381.6844 C343.936,395.3274 328.7423,396.7702 320.1236,379.6695 C308.8825,401.1657 296.9683,401.7211 281.9752,383.2508 C270.0017,397.4662 256.7485,400.8265 246.5756,381.3585 C234.2308,396.7575 224.2441,391.9121 214.9307,378.0771 C200.5033,394.0484 187.4361,395.4427 175.4599,375.3913 C166.5414,391.8347 151.1938,394.1535 140.0673,377.7719 C127.5214,393.9608 115.6517,393.4808 104.524,376.2631 C94.808,393.7402 77.6226,390.3228 69.525,374.5591 C47.7631,393.3335 34.9131,385.0293 25,361.9531 C27.7068,359.072 29.5109,359.7563 31.1098,363.0495 C13.9792,352.826 9.1567,341.6097 26.0436,326.6514 C4.9174,316.1439 8.7336,301.7868 23.9426,289.2388 C3.5966,279.3423 0.27,264.9504 18.746,249.9225 C0.918,241.5503 2.0884,223.5343 16.5624,213.2394 C0.2789,196.7289 3.5741,184.1428 22.8681,173.241 C1.1322,158.1244 3.32,144.2556 25.5505,131.9986 C8.9249,118.0749 7.7103,101.8706 28.755,90.883 C6.2663,76.3373 7.6773,56.1915 32,44.9531 C33.7135,43.4819 35.3087,43.954 35.8461,46.1774 " fill="#FFFFFF" style="stroke: #000000; stroke-width: 1.5;"/><!--MD5=[ec370b6abf6afbbd63f8172d2904b8c0]
entity juju--><ellipse cx="366" cy="62.9531" fill="#FEFECE" filter="url(#fbsny64ks3lim)" rx="8" ry="8" style="stroke: #A80036; stroke-width: 2.0;"/><text fill="#000000" font-family="sans-serif" font-size="14" lengthAdjust="spacingAndGlyphs" textLength="24" x="354" y="92.9482">JuJu</text><!--MD5=[e2307af040e3f87d22824e7603ca28ec]
entity api--><ellipse cx="186" cy="254.9531" fill="#FEFECE" filter="url(#fbsny64ks3lim)" rx="8" ry="8" style="stroke: #A80036; stroke-width: 2.0;"/><text fill="#000000" font-family="sans-serif" font-size="14" lengthAdjust="spacingAndGlyphs" textLength="21" x="175.5" y="284.9482">API</text><!--MD5=[a5a6ae0ba01c8a4589ab26bd33e87aad]
entity storage--><ellipse cx="321" cy="350.9531" fill="#FEFECE" filter="url(#fbsny64ks3lim)" rx="8" ry="8" style="stroke: #A80036; stroke-width: 2.0;"/><text fill="#000000" font-family="sans-serif" font-size="14" lengthAdjust="spacingAndGlyphs" textLength="54" x="294" y="380.9482">Storage</text><!--MD5=[a0fc4214121922e68a8615f120b83cce]
entity transform--><ellipse cx="276" cy="254.9531" fill="#FEFECE" filter="url(#fbsny64ks3lim)" rx="8" ry="8" style="stroke: #A80036; stroke-width: 2.0;"/><text fill="#000000" font-family="sans-serif" font-size="14" lengthAdjust="spacingAndGlyphs" textLength="70" x="241" y="284.9482">Transform</text><!--MD5=[1fe25e6ad2a661c9f8478b5f50e2a15d]
entity publisher--><ellipse cx="366" cy="254.9531" fill="#FEFECE" filter="url(#fbsny64ks3lim)" rx="8" ry="8" style="stroke: #A80036; stroke-width: 2.0;"/><text fill="#000000" font-family="sans-serif" font-size="14" lengthAdjust="spacingAndGlyphs" textLength="64" x="334" y="284.9482">Publisher</text><!--MD5=[e9053c6dbb891ad4199c45de881c9d13]
entity website--><ellipse cx="34" cy="254.9531" fill="#FEFECE" filter="url(#fbsny64ks3lim)" rx="8" ry="8" style="stroke: #A80036; stroke-width: 2.0;"/><text fill="#000000" font-family="sans-serif" font-size="14" lengthAdjust="spacingAndGlyphs" textLength="56" x="6" y="284.9482">Website</text><!--MD5=[8c2c2f45bb6f3525ee06b078af4d90cf]
entity JuJu--><rect fill="#FEFECE" filter="url(#fbsny64ks3lim)" height="36.2969" style="stroke: #A80036; stroke-width: 1.5;" width="44" x="410" y="44.9531"/><rect fill="#FEFECE" height="5" style="stroke: #A80036; stroke-width: 1.5;" width="10" x="405" y="49.9531"/><rect fill="#FEFECE" height="5" style="stroke: #A80036; stroke-width: 1.5;" width="10" x="405" y="71.25"/><text fill="#000000" font-family="sans-serif" font-size="14" lengthAdjust="spacingAndGlyphs" textLength="24" x="420" y="67.9482">JuJu</text><!--MD5=[cda190aec85529d7ef2e1486252d4310]
entity WebUI--><rect fill="#FEFECE" filter="url(#fbsny64ks3lim)" height="36.2969" style="stroke: #A80036; stroke-width: 1.5;" width="64" x="78" y="236.9531"/><rect fill="#FEFECE" height="5" style="stroke: #A80036; stroke-width: 1.5;" width="10" x="73" y="241.9531"/><rect fill="#FEFECE" height="5" style="stroke: #A80036; stroke-width: 1.5;" width="10" x="73" y="263.25"/><text fill="#000000" font-family="sans-serif" font-size="14" lengthAdjust="spacingAndGlyphs" textLength="44" x="88" y="259.9482">WebUI</text><!--MD5=[80aa38db62ea8b6ade7a1acd8b93c349]
entity Orchestra--><rect fill="#FEFECE" filter="url(#fbsny64ks3lim)" height="36.2969" style="stroke: #A80036; stroke-width: 1.5;" width="88" x="410" y="236.9531"/><rect fill="#FEFECE" height="5" style="stroke: #A80036; stroke-width: 1.5;" width="10" x="405" y="241.9531"/><rect fill="#FEFECE" height="5" style="stroke: #A80036; stroke-width: 1.5;" width="10" x="405" y="263.25"/><text fill="#000000" font-family="sans-serif" font-size="14" lengthAdjust="spacingAndGlyphs" textLength="68" x="420" y="259.9482">Orchestra</text><!--MD5=[4f78d112092d4a767d1d899cdc1eb9c4]
entity Transform--><rect fill="#FEFECE" filter="url(#fbsny64ks3lim)" height="36.2969" style="stroke: #A80036; stroke-width: 1.5;" width="90" x="199" y="140.9531"/><rect fill="#FEFECE" height="5" style="stroke: #A80036; stroke-width: 1.5;" width="10" x="194" y="145.9531"/><rect fill="#FEFECE" height="5" style="stroke: #A80036; stroke-width: 1.5;" width="10" x="194" y="167.25"/><text fill="#000000" font-family="sans-serif" font-size="14" lengthAdjust="spacingAndGlyphs" textLength="70" x="209" y="163.9482">Transform</text><!--MD5=[b9060e1352b009711fbb9730f967b58f]
entity Publisher--><rect fill="#FEFECE" filter="url(#fbsny64ks3lim)" height="36.2969" style="stroke: #A80036; stroke-width: 1.5;" width="84" x="324" y="140.9531"/><rect fill="#FEFECE" height="5" style="stroke: #A80036; stroke-width: 1.5;" width="10" x="319" y="145.9531"/><rect fill="#FEFECE" height="5" style="stroke: #A80036; stroke-width: 1.5;" width="10" x="319" y="167.25"/><text fill="#000000" font-family="sans-serif" font-size="14" lengthAdjust="spacingAndGlyphs" textLength="64" x="334" y="163.9482">Publisher</text><!--MD5=[cf25d34b6f9695ab689953484c0b6ae1]
entity Storage--><rect fill="#FEFECE" filter="url(#fbsny64ks3lim)" height="36.2969" style="stroke: #A80036; stroke-width: 1.5;" width="74" x="413" y="332.9531"/><rect fill="#FEFECE" height="5" style="stroke: #A80036; stroke-width: 1.5;" width="10" x="408" y="337.9531"/><rect fill="#FEFECE" height="5" style="stroke: #A80036; stroke-width: 1.5;" width="10" x="408" y="359.25"/><text fill="#000000" font-family="sans-serif" font-size="14" lengthAdjust="spacingAndGlyphs" textLength="54" x="423" y="355.9482">Storage</text><!--MD5=[f2f2ea6d7454c46e289b3df413e51d8f]
link juju to JuJu--><path d="M375.0234,62.9531 C386.5968,62.9531 398.1702,62.9531 409.7435,62.9531 " fill="none" id="juju-JuJu" style="stroke: #A80036; stroke-width: 1.0;"/><!--MD5=[c9b9d31024179afb0e8237a2b3ec2749]
link website to WebUI--><path d="M43.2031,254.9531 C54.7708,254.9531 66.3385,254.9531 77.9062,254.9531 " fill="none" id="website-WebUI" style="stroke: #A80036; stroke-width: 1.0;"/><!--MD5=[3cbc632372f71a09930494dcdc260733]
reverse link juju to WebUI--><path d="M351.7041,65.9154 C318.5592,73.3892 235.2427,95.7224 182,140.9531 C150.423,167.7784 128.092,212.0062 117.3167,236.7485 " fill="none" id="juju&lt;-WebUI" style="stroke: #A80036; stroke-width: 1.0; stroke-dasharray: 7.0,7.0;"/><polygon fill="#A80036" points="356.9373,64.766,347.2886,62.7903,352.0538,65.8389,349.0052,70.604,356.9373,64.766" style="stroke: #A80036; stroke-width: 1.0;"/><!--MD5=[e293b3f906f6c66d57d5aed9c30ca8a2]
link WebUI to storage--><path d="M142.0464,269.5334 C188.6644,290.7435 273.2691,329.2367 306.7803,344.4835 " fill="none" id="WebUI-&gt;storage" style="stroke: #A80036; stroke-width: 1.0; stroke-dasharray: 7.0,7.0;"/><polygon fill="#A80036" points="311.7063,346.7247,305.1709,339.3566,307.1552,344.654,301.8578,346.6384,311.7063,346.7247" style="stroke: #A80036; stroke-width: 1.0;"/><!--MD5=[9ccd6882b1cfc3b6dbb2a6775873e9f5]
link WebUI to api--><path d="M142.0625,254.9531 C151.9036,254.9531 161.7446,254.9531 171.5857,254.9531 " fill="none" id="WebUI-&gt;api" style="stroke: #A80036; stroke-width: 1.0; stroke-dasharray: 7.0,7.0;"/><polygon fill="#A80036" points="176.7319,254.9531,167.7319,250.9531,171.7319,254.9531,167.7319,258.9531,176.7319,254.9531" style="stroke: #A80036; stroke-width: 1.0;"/><!--MD5=[03769816707605e24874bfc3558fddc2]
link api to Orchestra--><path d="M195.2649,247.2099 C209.6376,235.7579 238.666,214.8131 267.5,206.9531 C313.8102,194.3291 329.2958,193.9464 375.5,206.9531 C396.2585,212.7967 416.9535,225.8255 431.8791,236.8364 " fill="none" id="api-Orchestra" style="stroke: #A80036; stroke-width: 1.0;"/><!--MD5=[ddd80ef60e5ef0be09ea26344d5fc5e4]
link transform to Orchestra--><path d="M284.6382,245.8406 C301.4095,229.2983 339.8688,196.9228 375.5,206.9531 C396.2585,212.7967 416.9535,225.8255 431.8791,236.8364 " fill="none" id="transform-Orchestra" style="stroke: #A80036; stroke-width: 1.0;"/><!--MD5=[41840821f329055b6ec76b82e5d2a421]
link publisher to Orchestra--><path d="M375.2813,254.9531 C386.7611,254.9531 398.2409,254.9531 409.7207,254.9531 " fill="none" id="publisher-Orchestra" style="stroke: #A80036; stroke-width: 1.0;"/><!--MD5=[fd08070ce6a308141f34ac2afee15c43]
reverse link juju to Orchestra--><path d="M378.8398,76.0085 C392.5103,90.6317 413.8171,115.6209 426,140.9531 C441.2808,172.7268 448.6957,213.6179 451.8975,236.7933 " fill="none" id="juju&lt;-Orchestra" style="stroke: #A80036; stroke-width: 1.0; stroke-dasharray: 7.0,7.0;"/><polygon fill="#A80036" points="375.2004,72.1672,378.4865,81.4517,378.6392,75.7969,384.294,75.9496,375.2004,72.1672" style="stroke: #A80036; stroke-width: 1.0;"/><!--MD5=[fb3e878d3f5f274a770338af7d39c399]
link Orchestra to storage--><path d="M428.9837,273.01 C400.9069,293.2759 356.4034,325.3987 334.3268,341.3337 " fill="none" id="Orchestra-&gt;storage" style="stroke: #A80036; stroke-width: 1.0; stroke-dasharray: 7.0,7.0;"/><polygon fill="#A80036" points="330.222,344.2966,339.8606,342.2725,334.2762,341.3703,335.1785,335.7858,330.222,344.2966" style="stroke: #A80036; stroke-width: 1.0;"/><!--MD5=[2cfacb86648284df18dc4025b89794fa]
reverse link juju to Transform--><path d="M352.7615,73.3703 C332.2744,89.4913 292.6127,120.7005 267.2659,140.6455 " fill="none" id="juju&lt;-Transform" style="stroke: #A80036; stroke-width: 1.0; stroke-dasharray: 7.0,7.0;"/><polygon fill="#A80036" points="356.8302,70.1687,347.2838,72.5907,352.9008,73.2607,352.2309,78.8777,356.8302,70.1687" style="stroke: #A80036; stroke-width: 1.0;"/><!--MD5=[c7c0534ddbe0a096fd39b63633896edf]
link Transform to storage--><path d="M241.3172,177.1551 C238.6939,200.375 236.7897,241.3132 250,272.9531 C262.3577,302.5509 291.0426,328.1614 307.9274,341.385 " fill="none" id="Transform-&gt;storage" style="stroke: #A80036; stroke-width: 1.0; stroke-dasharray: 7.0,7.0;"/><polygon fill="#A80036" points="311.9488,344.475,307.2496,335.8195,307.9841,341.4285,302.3752,342.163,311.9488,344.475" style="stroke: #A80036; stroke-width: 1.0;"/><!--MD5=[26f2145258bb946392be4264941a8c75]
link Transform to transform--><path d="M250.019,177.01 C256.1881,195.5175 265.6535,223.9136 271.2951,240.8385 " fill="none" id="Transform-&gt;transform" style="stroke: #A80036; stroke-width: 1.0; stroke-dasharray: 7.0,7.0;"/><polygon fill="#A80036" points="272.9154,245.6992,273.8638,235.8961,271.3341,240.9559,266.2744,238.4262,272.9154,245.6992" style="stroke: #A80036; stroke-width: 1.0;"/><!--MD5=[3089abc177ed4a3c5a45e746b1d612c1]
reverse link juju to Publisher--><path d="M366,77.4486 C366,94.3943 366,122.455 366,140.8257 " fill="none" id="juju&lt;-Publisher" style="stroke: #A80036; stroke-width: 1.0; stroke-dasharray: 7.0,7.0;"/><polygon fill="#A80036" points="366,72.158,362,81.158,366,77.158,370,81.158,366,72.158" style="stroke: #A80036; stroke-width: 1.0;"/><!--MD5=[b099c5e31befe7ade59eb62557a132e6]
link Publisher to storage--><path d="M359.0884,176.9973 C353.3078,192.656 345.1956,216.0347 340,236.9531 C331.2162,272.3179 325.333,314.8785 322.6556,336.6275 " fill="none" id="Publisher-&gt;storage" style="stroke: #A80036; stroke-width: 1.0; stroke-dasharray: 7.0,7.0;"/><polygon fill="#A80036" points="322.0441,341.6914,327.0942,333.2359,322.6435,336.7275,319.1519,332.2768,322.0441,341.6914" style="stroke: #A80036; stroke-width: 1.0;"/><!--MD5=[c358e924f5976ea10609a9b885a45a79]
link Publisher to publisher--><path d="M366,177.01 C366,195.358 366,223.4247 366,240.3983 " fill="none" id="Publisher-&gt;publisher" style="stroke: #A80036; stroke-width: 1.0; stroke-dasharray: 7.0,7.0;"/><polygon fill="#A80036" points="366,245.6992,370,236.6992,366,240.6992,362,236.6992,366,245.6992" style="stroke: #A80036; stroke-width: 1.0;"/><!--MD5=[ea47db41f171ee94fcd799857f4bfcd0]
link storage to Storage--><path d="M330.0703,350.9531 C357.7104,350.9531 385.3504,350.9531 412.9904,350.9531 " fill="none" id="storage-Storage" style="stroke: #A80036; stroke-width: 1.0;"/><!--MD5=[0c2dfc3a1e965285de57aeea4d532e38]
reverse link juju to Storage--><path d="M379.6763,72.7228 C411.4935,96.4407 489.7633,160.7534 516,236.9531 C521.2089,252.0815 521.5033,257.9293 516,272.9531 C507.2749,296.772 487.7036,318.3189 472.1258,332.6998 " fill="none" id="juju&lt;-Storage" style="stroke: #A80036; stroke-width: 1.0; stroke-dasharray: 7.0,7.0;"/><polygon fill="#A80036" points="375.3307,69.5214,380.2041,78.0801,379.3562,72.4871,384.9492,71.6392,375.3307,69.5214" style="stroke: #A80036; stroke-width: 1.0;"/><!--MD5=[668dd042140cf7a04b8e369c567f3df5]
@startuml


title "OSCIED Charms Relations (Simple)"


cloud {
    interface "JuJu" as juju
    interface "API" as api
    interface "Storage" as storage
    interface "Transform" as transform
    interface "Publisher" as publisher
    interface "Website" as website

    juju - [JuJu]

    website - [WebUI]
    [WebUI] .up.> juju
    [WebUI] .down.> storage
    [WebUI] .right.> api

    api - [Orchestra]
    transform - [Orchestra]
    publisher - [Orchestra]
    [Orchestra] .up.> juju
    [Orchestra] .down.> storage

    [Transform] .up.> juju
    [Transform] .down.> storage
    [Transform] ..> transform

    [Publisher] .up.> juju
    [Publisher] .down.> storage
    [Publisher] ..> publisher

    storage - [Storage]
    [Storage] .up.> juju
}

@enduml

PlantUML version 1.2020.06(Sun Apr 05 12:38:32 GMT 2020)
(GPL source distribution)
Java Runtime: OpenJDK Runtime Environment
JVM: OpenJDK 64-Bit Server VM
Java Version: 14-ea+33
Operating System: Linux
Default Encoding: UTF-8
Language: en
Country: US
--></g></svg>