<?xml version="1.0" encoding="UTF-8" standalone="no"?><svg xmlns="http://www.w3.org/2000/svg" xmlns:xlink="http://www.w3.org/1999/xlink" contentScriptType="application/ecmascript" contentStyleType="text/css" height="182px" preserveAspectRatio="none" style="width:452px;height:182px;" version="1.1" viewBox="0 0 452 182" width="452px" zoomAndPan="magnify"><defs><filter height="300%" id="fijowb9" width="300%" x="-1" y="-1"><feGaussianBlur result="blurOut" stdDeviation="2.0"/><feColorMatrix in="blurOut" result="blurOut2" type="matrix" values="0 0 0 0 0 0 0 0 0 0 0 0 0 0 0 0 0 0 .4 0"/><feOffset dx="4.0" dy="4.0" in="blurOut2" result="blurOut3"/><feBlend in="SourceGraphic" in2="blurOut3" mode="normal"/></filter></defs><g><!--entity node1--><polygon fill="#FEFECE" filter="url(#fijowb9)" points="184,18,194,8,268,8,268,44.29,258,54.29,184,54.29,184,18" style="stroke: #000000; stroke-width: 1.5;"/><line style="stroke: #000000; stroke-width: 1.5;" x1="258" x2="267" y1="18" y2="9"/><line style="stroke: #000000; stroke-width: 1.5;" x1="184" x2="258" y1="18" y2="18"/><line style="stroke: #000000; stroke-width: 1.5;" x1="258" x2="258" y1="18" y2="54.29"/><text fill="#000000" font-family="sans-serif" font-size="14" lengthAdjust="spacingAndGlyphs" textLength="44" x="199" y="41.3027">node1</text><!--entity node2--><polygon fill="#FEFECE" filter="url(#fijowb9)" points="6,141,16,131,90,131,90,167.29,80,177.29,6,177.29,6,141" style="stroke: #000000; stroke-width: 1.5;"/><line style="stroke: #000000; stroke-width: 1.5;" x1="80" x2="89" y1="141" y2="132"/><line style="stroke: #000000; stroke-width: 1.5;" x1="6" x2="80" y1="141" y2="141"/><line style="stroke: #000000; stroke-width: 1.5;" x1="80" x2="80" y1="141" y2="177.29"/><text fill="#000000" font-family="sans-serif" font-size="14" lengthAdjust="spacingAndGlyphs" textLength="44" x="21" y="164.3027">node2</text><!--entity node3--><polygon fill="#FEFECE" filter="url(#fijowb9)" points="125,141,135,131,209,131,209,167.29,199,177.29,125,177.29,125,141" style="stroke: #000000; stroke-width: 1.5;"/><line style="stroke: #000000; stroke-width: 1.5;" x1="199" x2="208" y1="141" y2="132"/><line style="stroke: #000000; stroke-width: 1.5;" x1="125" x2="199" y1="141" y2="141"/><line style="stroke: #000000; stroke-width: 1.5;" x1="199" x2="199" y1="141" y2="177.29"/><text fill="#000000" font-family="sans-serif" font-size="14" lengthAdjust="spacingAndGlyphs" textLength="44" x="140" y="164.3027">node3</text><!--entity node4--><polygon fill="#FEFECE" filter="url(#fijowb9)" points="244,141,254,131,328,131,328,167.29,318,177.29,244,177.29,244,141" style="stroke: #000000; stroke-width: 1.5;"/><line style="stroke: #000000; stroke-width: 1.5;" x1="318" x2="327" y1="141" y2="132"/><line style="stroke: #000000; stroke-width: 1.5;" x1="244" x2="318" y1="141" y2="141"/><line style="stroke: #000000; stroke-width: 1.5;" x1="318" x2="318" y1="141" y2="177.29"/><text fill="#000000" font-family="sans-serif" font-size="14" lengthAdjust="spacingAndGlyphs" textLength="44" x="259" y="164.3027">node4</text><!--entity node5--><polygon fill="#FEFECE" filter="url(#fijowb9)" points="363,141,373,131,447,131,447,167.29,437,177.29,363,177.29,363,141" style="stroke: #000000; stroke-width: 1.5;"/><line style="stroke: #000000; stroke-width: 1.5;" x1="437" x2="446" y1="141" y2="132"/><line style="stroke: #000000; stroke-width: 1.5;" x1="363" x2="437" y1="141" y2="141"/><line style="stroke: #000000; stroke-width: 1.5;" x1="437" x2="437" y1="141" y2="177.29"/><text fill="#000000" font-family="sans-serif" font-size="14" lengthAdjust="spacingAndGlyphs" textLength="44" x="378" y="164.3027">node5</text><path d="M190.19,54.079 C175.723,63.161 158.946,73.902 144,84 C121.55,99.1674 96.7285,117.0384 77.9494,130.7923 " fill="none" style="stroke: #A80036; stroke-width: 1.0;"/><text fill="#000000" font-family="sans-serif" font-size="13" lengthAdjust="spacingAndGlyphs" textLength="38" x="145" y="97.3525">label1</text><path d="M215.178,54.193 C204.533,76.026 188.375,109.1639 177.753,130.9474 " fill="none" style="stroke: #A80036; stroke-width: 1.0; stroke-dasharray: 7.0,7.0;"/><text fill="#000000" font-family="sans-serif" font-size="13" lengthAdjust="spacingAndGlyphs" textLength="38" x="201" y="97.3525">label2</text><path d="M237.005,54.193 C247.831,76.026 264.263,109.1639 275.065,130.9474 " fill="none" style="stroke: #A80036; stroke-width: 1.0; stroke-dasharray: 1.0,3.0;"/><text fill="#000000" font-family="sans-serif" font-size="13" lengthAdjust="spacingAndGlyphs" textLength="38" x="260" y="97.3525">label3</text><path d="M261.299,54.199 C275.578,63.299 292.163,74.021 307,84 C329.791,99.3289 355.134,117.1949 374.338,130.906 " fill="none" style="stroke: #A80036; stroke-width: 2.0;"/></g></svg>