<?xml version="1.0" encoding="UTF-8" standalone="no"?><svg xmlns="http://www.w3.org/2000/svg" xmlns:xlink="http://www.w3.org/1999/xlink" contentScriptType="application/ecmascript" contentStyleType="text/css" height="230px" preserveAspectRatio="none" style="width:233px;height:230px;" version="1.1" viewBox="0 0 233 230" width="233px" zoomAndPan="magnify"><defs><filter height="300%" id="fpak1am" width="300%" x="-1" y="-1"><feGaussianBlur result="blurOut" stdDeviation="2.0"/><feColorMatrix in="blurOut" result="blurOut2" type="matrix" values="0 0 0 0 0 0 0 0 0 0 0 0 0 0 0 0 0 0 .4 0"/><feOffset dx="4.0" dy="4.0" in="blurOut2" result="blurOut3"/><feBlend in="SourceGraphic" in2="blurOut3" mode="normal"/></filter></defs><g><!--entity Component--><rect fill="#FEFECE" filter="url(#fpak1am)" height="36.29" style="stroke: #A80036; stroke-width: 1.5;" width="101" x="63.5" y="102"/><rect fill="#FEFECE" height="5" style="stroke: #A80036; stroke-width: 1.5;" width="10" x="58.5" y="107"/><rect fill="#FEFECE" height="5" style="stroke: #A80036; stroke-width: 1.5;" width="10" x="58.5" y="128.29"/><text fill="#000000" font-family="sans-serif" font-size="14" lengthAdjust="spacingAndGlyphs" textLength="81" x="73.5" y="125.3027">Component</text><!--entity left--><ellipse cx="17" cy="112" fill="#FEFECE" filter="url(#fpak1am)" rx="8" ry="8" style="stroke: #A80036; stroke-width: 2.0;"/><text fill="#000000" font-family="sans-serif" font-size="14" lengthAdjust="spacingAndGlyphs" textLength="22" x="6" y="134.3027">left</text><!--entity right--><ellipse cx="216" cy="112" fill="#FEFECE" filter="url(#fpak1am)" rx="8" ry="8" style="stroke: #A80036; stroke-width: 2.0;"/><text fill="#000000" font-family="sans-serif" font-size="14" lengthAdjust="spacingAndGlyphs" textLength="33" x="199.5" y="134.3027">right</text><!--entity up--><ellipse cx="114" cy="17" fill="#FEFECE" filter="url(#fpak1am)" rx="8" ry="8" style="stroke: #A80036; stroke-width: 2.0;"/><text fill="#000000" font-family="sans-serif" font-size="14" lengthAdjust="spacingAndGlyphs" textLength="18" x="105" y="39.3027">up</text><!--entity down--><ellipse cx="114" cy="207" fill="#FEFECE" filter="url(#fpak1am)" rx="8" ry="8" style="stroke: #A80036; stroke-width: 2.0;"/><text fill="#000000" font-family="sans-serif" font-size="14" lengthAdjust="spacingAndGlyphs" textLength="38" x="95" y="229.3027">down</text><path d="M33.5807,120 C43.5505,120 53.5203,120 63.49,120 " fill="none" style="stroke: #A80036; stroke-width: 1.0;"/><polygon fill="#A80036" points="28.3672,120,37.3672,124,33.3672,120,37.3672,116,28.3672,120" style="stroke: #A80036; stroke-width: 1.0;"/><path d="M164.602,120 C174.404,120 184.206,120 194.009,120 " fill="none" style="stroke: #A80036; stroke-width: 1.0;"/><polygon fill="#A80036" points="199.135,120,190.135,116,194.135,120,190.135,124,199.135,120" style="stroke: #A80036; stroke-width: 1.0;"/><path d="M114,47.539 C114,64.01 114,86.42 114,101.725 " fill="none" style="stroke: #A80036; stroke-width: 1.0;"/><polygon fill="#A80036" points="114,42.199,110,51.199,114,47.199,118,51.199,114,42.199" style="stroke: #A80036; stroke-width: 1.0;"/><path d="M114,138.0576 C114,153.4163 114,176.0547 114,192.618 " fill="none" style="stroke: #A80036; stroke-width: 1.0;"/><polygon fill="#A80036" points="114,197.983,118,188.983,114,192.983,110,188.983,114,197.983" style="stroke: #A80036; stroke-width: 1.0;"/></g></svg>