<?xml version="1.0" encoding="UTF-8" standalone="no"?><svg xmlns="http://www.w3.org/2000/svg" xmlns:xlink="http://www.w3.org/1999/xlink" contentScriptType="application/ecmascript" contentStyleType="text/css" height="147px" preserveAspectRatio="none" style="width:220px;height:147px;" version="1.1" viewBox="0 0 220 147" width="220px" zoomAndPan="magnify"><defs><filter height="300%" id="faoerfb" width="300%" x="-1" y="-1"><feGaussianBlur result="blurOut" stdDeviation="2.0"/><feColorMatrix in="blurOut" result="blurOut2" type="matrix" values="0 0 0 0 0 0 0 0 0 0 0 0 0 0 0 0 0 0 .4 0"/><feOffset dx="4.0" dy="4.0" in="blurOut2" result="blurOut3"/><feBlend in="SourceGraphic" in2="blurOut3" mode="normal"/></filter></defs><g><!--entity Interface1--><ellipse cx="160.5" cy="17" fill="#FEFECE" filter="url(#faoerfb)" rx="8" ry="8" style="stroke: #A80036; stroke-width: 2.0;"/><text fill="#000000" font-family="sans-serif" font-size="14" lengthAdjust="spacingAndGlyphs" textLength="69" x="126" y="39.3027">Interface1</text><!--entity Component--><rect fill="#FEFECE" filter="url(#faoerfb)" height="36.29" style="stroke: #A80036; stroke-width: 1.5;" width="101" x="110" y="102"/><rect fill="#FEFECE" height="5" style="stroke: #A80036; stroke-width: 1.5;" width="10" x="105" y="107"/><rect fill="#FEFECE" height="5" style="stroke: #A80036; stroke-width: 1.5;" width="10" x="105" y="128.29"/><text fill="#000000" font-family="sans-serif" font-size="14" lengthAdjust="spacingAndGlyphs" textLength="81" x="120" y="125.3027">Component</text><!--entity Interface2--><ellipse cx="40.5" cy="112" fill="#FEFECE" filter="url(#faoerfb)" rx="8" ry="8" style="stroke: #A80036; stroke-width: 2.0;"/><text fill="#000000" font-family="sans-serif" font-size="14" lengthAdjust="spacingAndGlyphs" textLength="69" x="6" y="134.3027">Interface2</text><path d="M160.5,47.5387 C160.5,64.0099 160.5,86.4197 160.5,101.7254 " fill="none" style="stroke: #A80036; stroke-width: 1.0;"/><polygon fill="#A80036" points="160.5,42.1994,156.5,51.1994,160.5,47.1994,164.5,51.1994,160.5,42.1994" style="stroke: #A80036; stroke-width: 1.0;"/><path d="M80.3321,120 C90.17,120 100.0078,120 109.846,120 " fill="none" style="stroke: #A80036; stroke-width: 1.0;"/><polygon fill="#A80036" points="75.1875,120,84.1875,124,80.1875,120,84.1875,116,75.1875,120" style="stroke: #A80036; stroke-width: 1.0;"/></g></svg>