<?xml version="1.0" encoding="UTF-8" standalone="no"?><svg xmlns="http://www.w3.org/2000/svg" xmlns:xlink="http://www.w3.org/1999/xlink" contentScriptType="application/ecmascript" contentStyleType="text/css" height="463px" preserveAspectRatio="none" style="width:777px;height:463px;" version="1.1" viewBox="0 0 777 463" width="777px" zoomAndPan="magnify"><defs><filter height="300%" id="fkfvyto" width="300%" x="-1" y="-1"><feGaussianBlur result="blurOut" stdDeviation="2.0"/><feColorMatrix in="blurOut" result="blurOut2" type="matrix" values="0 0 0 0 0 0 0 0 0 0 0 0 0 0 0 0 0 0 .4 0"/><feOffset dx="4.0" dy="4.0" in="blurOut2" result="blurOut3"/><feBlend in="SourceGraphic" in2="blurOut3" mode="normal"/></filter></defs><g><text fill="#000000" font-family="sans-serif" font-size="18" lengthAdjust="spacingAndGlyphs" textLength="311" x="243.5" y="17.1035">"OSCIED Charms Relations (Simple)"</text><!--cluster ##2--><path d="M25,51.9443 C25,48.9443 27,46.9443 30,46.9443 C33,46.9443 35,48.9443 35,51.9443 C35,48.9443 37,46.9443 40,46.9443 C43,46.9443 45,48.9443 45,51.9443 C45,48.9443 47,46.9443 50,46.9443 C53,46.9443 55,48.9443 55,51.9443 C55,48.9443 57,46.9443 60,46.9443 C63,46.9443 65,48.9443 65,51.9443 C65,48.9443 67,46.9443 70,46.9443 C73,46.9443 75,48.9443 75,51.9443 C75,48.9443 77,46.9443 80,46.9443 C83,46.9443 85,48.9443 85,51.9443 C85,48.9443 87,46.9443 90,46.9443 C93,46.9443 95,48.9443 95,51.9443 C95,48.9443 97,46.9443 100,46.9443 C103,46.9443 105,48.9443 105,51.9443 C105,48.9443 107,46.9443 110,46.9443 C113,46.9443 115,48.9443 115,51.9443 C115,48.9443 117,46.9443 120,46.9443 C123,46.9443 125,48.9443 125,51.9443 C125,48.9443 127,46.9443 130,46.9443 C133,46.9443 135,48.9443 135,51.9443 C135,48.9443 137,46.9443 140,46.9443 C143,46.9443 145,48.9443 145,51.9443 C145,48.9443 147,46.9443 150,46.9443 C153,46.9443 155,48.9443 155,51.9443 C155,48.9443 157,46.9443 160,46.9443 C163,46.9443 165,48.9443 165,51.9443 C165,48.9443 167,46.9443 170,46.9443 C173,46.9443 175,48.9443 175,51.9443 C175,48.9443 177,46.9443 180,46.9443 C183,46.9443 185,48.9443 185,51.9443 C185,48.9443 187,46.9443 190,46.9443 C193,46.9443 195,48.9443 195,51.9443 C195,48.9443 197,46.9443 200,46.9443 C203,46.9443 205,48.9443 205,51.9443 C205,48.9443 207,46.9443 210,46.9443 C213,46.9443 215,48.9443 215,51.9443 C215,48.9443 217,46.9443 220,46.9443 C223,46.9443 225,48.9443 225,51.9443 C225,48.9443 227,46.9443 230,46.9443 C233,46.9443 235,48.9443 235,51.9443 C235,48.9443 237,46.9443 240,46.9443 C243,46.9443 245,48.9443 245,51.9443 C245,48.9443 247,46.9443 250,46.9443 C253,46.9443 255,48.9443 255,51.9443 C255,48.9443 257,46.9443 260,46.9443 C263,46.9443 265,48.9443 265,51.9443 C265,48.9443 267,46.9443 270,46.9443 C273,46.9443 275,48.9443 275,51.9443 C275,48.9443 277,46.9443 280,46.9443 C283,46.9443 285,48.9443 285,51.9443 C285,48.9443 287,46.9443 290,46.9443 C293,46.9443 295,48.9443 295,51.9443 C295,48.9443 297,46.9443 300,46.9443 C303,46.9443 305,48.9443 305,51.9443 C305,48.9443 307,46.9443 310,46.9443 C313,46.9443 315,48.9443 315,51.9443 C315,48.9443 317,46.9443 320,46.9443 C323,46.9443 325,48.9443 325,51.9443 C325,48.9443 327,46.9443 330,46.9443 C333,46.9443 335,48.9443 335,51.9443 C335,48.9443 337,46.9443 340,46.9443 C343,46.9443 345,48.9443 345,51.9443 C345,48.9443 347,46.9443 350,46.9443 C353,46.9443 355,48.9443 355,51.9443 C355,48.9443 357,46.9443 360,46.9443 C363,46.9443 365,48.9443 365,51.9443 C365,48.9443 367,46.9443 370,46.9443 C373,46.9443 375,48.9443 375,51.9443 C375,48.9443 377,46.9443 380,46.9443 C383,46.9443 385,48.9443 385,51.9443 C385,48.9443 387,46.9443 390,46.9443 C393,46.9443 395,48.9443 395,51.9443 C395,48.9443 397,46.9443 400,46.9443 C403,46.9443 405,48.9443 405,51.9443 C405,48.9443 407,46.9443 410,46.9443 C413,46.9443 415,48.9443 415,51.9443 C415,48.9443 417,46.9443 420,46.9443 C423,46.9443 425,48.9443 425,51.9443 C425,48.9443 427,46.9443 430,46.9443 C433,46.9443 435,48.9443 435,51.9443 C435,48.9443 437,46.9443 440,46.9443 C443,46.9443 445,48.9443 445,51.9443 C445,48.9443 447,46.9443 450,46.9443 C453,46.9443 455,48.9443 455,51.9443 C455,48.9443 457,46.9443 460,46.9443 C463,46.9443 465,48.9443 465,51.9443 C465,48.9443 467,46.9443 470,46.9443 C473,46.9443 475,48.9443 475,51.9443 C475,48.9443 477,46.9443 480,46.9443 C483,46.9443 485,48.9443 485,51.9443 C485,48.9443 487,46.9443 490,46.9443 C493,46.9443 495,48.9443 495,51.9443 C495,48.9443 497,46.9443 500,46.9443 C503,46.9443 505,48.9443 505,51.9443 C505,48.9443 507,46.9443 510,46.9443 C513,46.9443 515,48.9443 515,51.9443 C515,48.9443 517,46.9443 520,46.9443 C523,46.9443 525,48.9443 525,51.9443 C525,48.9443 527,46.9443 530,46.9443 C533,46.9443 535,48.9443 535,51.9443 C535,48.9443 537,46.9443 540,46.9443 C543,46.9443 545,48.9443 545,51.9443 C545,48.9443 547,46.9443 550,46.9443 C553,46.9443 555,48.9443 555,51.9443 C555,48.9443 557,46.9443 560,46.9443 C563,46.9443 565,48.9443 565,51.9443 C565,48.9443 567,46.9443 570,46.9443 C573,46.9443 575,48.9443 575,51.9443 C575,48.9443 577,46.9443 580,46.9443 C583,46.9443 585,48.9443 585,51.9443 C585,48.9443 587,46.9443 590,46.9443 C593,46.9443 595,48.9443 595,51.9443 C595,48.9443 597,46.9443 600,46.9443 C603,46.9443 605,48.9443 605,51.9443 C605,48.9443 607,46.9443 610,46.9443 C613,46.9443 615,48.9443 615,51.9443 C615,48.9443 617,46.9443 620,46.9443 C623,46.9443 625,48.9443 625,51.9443 C625,48.9443 627,46.9443 630,46.9443 C633,46.9443 635,48.9443 635,51.9443 C635,48.9443 637,46.9443 640,46.9443 C643,46.9443 645,48.9443 645,51.9443 C645,48.9443 647,46.9443 650,46.9443 C653,46.9443 655,48.9443 655,51.9443 C655,48.9443 657,46.9443 660,46.9443 C663,46.9443 665,48.9443 665,51.9443 C665,48.9443 667,46.9443 670,46.9443 C673,46.9443 675,48.9443 675,51.9443 C675,48.9443 677,46.9443 680,46.9443 C683,46.9443 685,48.9443 685,51.9443 C685,48.9443 687,46.9443 690,46.9443 C693,46.9443 695,48.9443 695,51.9443 C695,48.9443 697,46.9443 700,46.9443 C703,46.9443 705,48.9443 705,51.9443 C705,48.9443 707,46.9443 710,46.9443 C713,46.9443 715,48.9443 715,51.9443 C715,48.9443 717,46.9443 720,46.9443 C723,46.9443 725,48.9443 725,51.9443 C725,48.9443 727,46.9443 730,46.9443 C733,46.9443 735,48.9443 735,51.9443 C735,48.9443 737,46.9443 740,46.9443 C743,46.9443 745,48.9443 745,51.9443 C745,48.9443 747,46.9443 750,46.9443 C753,46.9443 755,48.9443 755,51.9443 C755,48.9443 757,46.9443 760,46.9443 C763,46.9443 765,48.9443 765,51.9443 C768,51.9443 770,53.9443 770,56.9443 C770,59.9443 768,61.9443 765,61.9443 C768,61.9443 770,63.9443 770,66.9443 C770,69.9443 768,71.9443 765,71.9443 C768,71.9443 770,73.9443 770,76.9443 C770,79.9443 768,81.9443 765,81.9443 C768,81.9443 770,83.9443 770,86.9443 C770,89.9443 768,91.9443 765,91.9443 C768,91.9443 770,93.9443 770,96.9443 C770,99.9443 768,101.9443 765,101.9443 C768,101.9443 770,103.9443 770,106.9443 C770,109.9443 768,111.9443 765,111.9443 C768,111.9443 770,113.9443 770,116.9443 C770,119.9443 768,121.9443 765,121.9443 C768,121.9443 770,123.9443 770,126.9443 C770,129.9443 768,131.9443 765,131.9443 C768,131.9443 770,133.9443 770,136.9443 C770,139.9443 768,141.9443 765,141.9443 C768,141.9443 770,143.9443 770,146.9443 C770,149.9443 768,151.9443 765,151.9443 C768,151.9443 770,153.9443 770,156.9443 C770,159.9443 768,161.9443 765,161.9443 C768,161.9443 770,163.9443 770,166.9443 C770,169.9443 768,171.9443 765,171.9443 C768,171.9443 770,173.9443 770,176.9443 C770,179.9443 768,181.9443 765,181.9443 C768,181.9443 770,183.9443 770,186.9443 C770,189.9443 768,191.9443 765,191.9443 C768,191.9443 770,193.9443 770,196.9443 C770,199.9443 768,201.9443 765,201.9443 C768,201.9443 770,203.9443 770,206.9443 C770,209.9443 768,211.9443 765,211.9443 C768,211.9443 770,213.9443 770,216.9443 C770,219.9443 768,221.9443 765,221.9443 C768,221.9443 770,223.9443 770,226.9443 C770,229.9443 768,231.9443 765,231.9443 C768,231.9443 770,233.9443 770,236.9443 C770,239.9443 768,241.9443 765,241.9443 C768,241.9443 770,243.9443 770,246.9443 C770,249.9443 768,251.9443 765,251.9443 C768,251.9443 770,253.9443 770,256.9443 C770,259.9443 768,261.9443 765,261.9443 C768,261.9443 770,263.9443 770,266.9443 C770,269.9443 768,271.9443 765,271.9443 C768,271.9443 770,273.9443 770,276.9443 C770,279.9443 768,281.9443 765,281.9443 C768,281.9443 770,283.9443 770,286.9443 C770,289.9443 768,291.9443 765,291.9443 C768,291.9443 770,293.9443 770,296.9443 C770,299.9443 768,301.9443 765,301.9443 C768,301.9443 770,303.9443 770,306.9443 C770,309.9443 768,311.9443 765,311.9443 C768,311.9443 770,313.9443 770,316.9443 C770,319.9443 768,321.9443 765,321.9443 C768,321.9443 770,323.9443 770,326.9443 C770,329.9443 768,331.9443 765,331.9443 C768,331.9443 770,333.9443 770,336.9443 C770,339.9443 768,341.9443 765,341.9443 C768,341.9443 770,343.9443 770,346.9443 C770,349.9443 768,351.9443 765,351.9443 C768,351.9443 770,353.9443 770,356.9443 C770,359.9443 768,361.9443 765,361.9443 C768,361.9443 770,363.9443 770,366.9443 C770,369.9443 768,371.9443 765,371.9443 C768,371.9443 770,373.9443 770,376.9443 C770,379.9443 768,381.9443 765,381.9443 C768,381.9443 770,383.9443 770,386.9443 C770,389.9443 768,391.9443 765,391.9443 C768,391.9443 770,393.9443 770,396.9443 C770,399.9443 768,401.9443 765,401.9443 C768,401.9443 770,403.9443 770,406.9443 C770,409.9443 768,411.9443 765,411.9443 C768,411.9443 770,413.9443 770,416.9443 C770,419.9443 768,421.9443 765,421.9443 C768,421.9443 770,423.9443 770,426.9443 C770,429.9443 768,431.9443 765,431.9443 C768,431.9443 770,433.9443 770,436.9443 C770,439.9443 768,441.9443 765,441.9443 C768,441.9443 770,443.9443 770,446.9443 C770,449.9443 768,451.9443 765,451.9443 C765,454.9443 762,456.9443 760,456.9443 C757,456.9443 755,454.9443 755,451.9443 C755,454.9443 752,456.9443 750,456.9443 C747,456.9443 745,454.9443 745,451.9443 C745,454.9443 742,456.9443 740,456.9443 C737,456.9443 735,454.9443 735,451.9443 C735,454.9443 732,456.9443 730,456.9443 C727,456.9443 725,454.9443 725,451.9443 C725,454.9443 722,456.9443 720,456.9443 C717,456.9443 715,454.9443 715,451.9443 C715,454.9443 712,456.9443 710,456.9443 C707,456.9443 705,454.9443 705,451.9443 C705,454.9443 702,456.9443 700,456.9443 C697,456.9443 695,454.9443 695,451.9443 C695,454.9443 692,456.9443 690,456.9443 C687,456.9443 685,454.9443 685,451.9443 C685,454.9443 682,456.9443 680,456.9443 C677,456.9443 675,454.9443 675,451.9443 C675,454.9443 672,456.9443 670,456.9443 C667,456.9443 665,454.9443 665,451.9443 C665,454.9443 662,456.9443 660,456.9443 C657,456.9443 655,454.9443 655,451.9443 C655,454.9443 652,456.9443 650,456.9443 C647,456.9443 645,454.9443 645,451.9443 C645,454.9443 642,456.9443 640,456.9443 C637,456.9443 635,454.9443 635,451.9443 C635,454.9443 632,456.9443 630,456.9443 C627,456.9443 625,454.9443 625,451.9443 C625,454.9443 622,456.9443 620,456.9443 C617,456.9443 615,454.9443 615,451.9443 C615,454.9443 612,456.9443 610,456.9443 C607,456.9443 605,454.9443 605,451.9443 C605,454.9443 602,456.9443 600,456.9443 C597,456.9443 595,454.9443 595,451.9443 C595,454.9443 592,456.9443 590,456.9443 C587,456.9443 585,454.9443 585,451.9443 C585,454.9443 582,456.9443 580,456.9443 C577,456.9443 575,454.9443 575,451.9443 C575,454.9443 572,456.9443 570,456.9443 C567,456.9443 565,454.9443 565,451.9443 C565,454.9443 562,456.9443 560,456.9443 C557,456.9443 555,454.9443 555,451.9443 C555,454.9443 552,456.9443 550,456.9443 C547,456.9443 545,454.9443 545,451.9443 C545,454.9443 542,456.9443 540,456.9443 C537,456.9443 535,454.9443 535,451.9443 C535,454.9443 532,456.9443 530,456.9443 C527,456.9443 525,454.9443 525,451.9443 C525,454.9443 522,456.9443 520,456.9443 C517,456.9443 515,454.9443 515,451.9443 C515,454.9443 512,456.9443 510,456.9443 C507,456.9443 505,454.9443 505,451.9443 C505,454.9443 502,456.9443 500,456.9443 C497,456.9443 495,454.9443 495,451.9443 C495,454.9443 492,456.9443 490,456.9443 C487,456.9443 485,454.9443 485,451.9443 C485,454.9443 482,456.9443 480,456.9443 C477,456.9443 475,454.9443 475,451.9443 C475,454.9443 472,456.9443 470,456.9443 C467,456.9443 465,454.9443 465,451.9443 C465,454.9443 462,456.9443 460,456.9443 C457,456.9443 455,454.9443 455,451.9443 C455,454.9443 452,456.9443 450,456.9443 C447,456.9443 445,454.9443 445,451.9443 C445,454.9443 442,456.9443 440,456.9443 C437,456.9443 435,454.9443 435,451.9443 C435,454.9443 432,456.9443 430,456.9443 C427,456.9443 425,454.9443 425,451.9443 C425,454.9443 422,456.9443 420,456.9443 C417,456.9443 415,454.9443 415,451.9443 C415,454.9443 412,456.9443 410,456.9443 C407,456.9443 405,454.9443 405,451.9443 C405,454.9443 402,456.9443 400,456.9443 C397,456.9443 395,454.9443 395,451.9443 C395,454.9443 392,456.9443 390,456.9443 C387,456.9443 385,454.9443 385,451.9443 C385,454.9443 382,456.9443 380,456.9443 C377,456.9443 375,454.9443 375,451.9443 C375,454.9443 372,456.9443 370,456.9443 C367,456.9443 365,454.9443 365,451.9443 C365,454.9443 362,456.9443 360,456.9443 C357,456.9443 355,454.9443 355,451.9443 C355,454.9443 352,456.9443 350,456.9443 C347,456.9443 345,454.9443 345,451.9443 C345,454.9443 342,456.9443 340,456.9443 C337,456.9443 335,454.9443 335,451.9443 C335,454.9443 332,456.9443 330,456.9443 C327,456.9443 325,454.9443 325,451.9443 C325,454.9443 322,456.9443 320,456.9443 C317,456.9443 315,454.9443 315,451.9443 C315,454.9443 312,456.9443 310,456.9443 C307,456.9443 305,454.9443 305,451.9443 C305,454.9443 302,456.9443 300,456.9443 C297,456.9443 295,454.9443 295,451.9443 C295,454.9443 292,456.9443 290,456.9443 C287,456.9443 285,454.9443 285,451.9443 C285,454.9443 282,456.9443 280,456.9443 C277,456.9443 275,454.9443 275,451.9443 C275,454.9443 272,456.9443 270,456.9443 C267,456.9443 265,454.9443 265,451.9443 C265,454.9443 262,456.9443 260,456.9443 C257,456.9443 255,454.9443 255,451.9443 C255,454.9443 252,456.9443 250,456.9443 C247,456.9443 245,454.9443 245,451.9443 C245,454.9443 242,456.9443 240,456.9443 C237,456.9443 235,454.9443 235,451.9443 C235,454.9443 232,456.9443 230,456.9443 C227,456.9443 225,454.9443 225,451.9443 C225,454.9443 222,456.9443 220,456.9443 C217,456.9443 215,454.9443 215,451.9443 C215,454.9443 212,456.9443 210,456.9443 C207,456.9443 205,454.9443 205,451.9443 C205,454.9443 202,456.9443 200,456.9443 C197,456.9443 195,454.9443 195,451.9443 C195,454.9443 192,456.9443 190,456.9443 C187,456.9443 185,454.9443 185,451.9443 C185,454.9443 182,456.9443 180,456.9443 C177,456.9443 175,454.9443 175,451.9443 C175,454.9443 172,456.9443 170,456.9443 C167,456.9443 165,454.9443 165,451.9443 C165,454.9443 162,456.9443 160,456.9443 C157,456.9443 155,454.9443 155,451.9443 C155,454.9443 152,456.9443 150,456.9443 C147,456.9443 145,454.9443 145,451.9443 C145,454.9443 142,456.9443 140,456.9443 C137,456.9443 135,454.9443 135,451.9443 C135,454.9443 132,456.9443 130,456.9443 C127,456.9443 125,454.9443 125,451.9443 C125,454.9443 122,456.9443 120,456.9443 C117,456.9443 115,454.9443 115,451.9443 C115,454.9443 112,456.9443 110,456.9443 C107,456.9443 105,454.9443 105,451.9443 C105,454.9443 102,456.9443 100,456.9443 C97,456.9443 95,454.9443 95,451.9443 C95,454.9443 92,456.9443 90,456.9443 C87,456.9443 85,454.9443 85,451.9443 C85,454.9443 82,456.9443 80,456.9443 C77,456.9443 75,454.9443 75,451.9443 C75,454.9443 72,456.9443 70,456.9443 C67,456.9443 65,454.9443 65,451.9443 C65,454.9443 62,456.9443 60,456.9443 C57,456.9443 55,454.9443 55,451.9443 C55,454.9443 52,456.9443 50,456.9443 C47,456.9443 45,454.9443 45,451.9443 C45,454.9443 42,456.9443 40,456.9443 C37,456.9443 35,454.9443 35,451.9443 C35,454.9443 32,456.9443 30,456.9443 C27,456.9443 25,454.9443 25,451.9443 C22,451.9443 20,449.9443 20,446.9443 C20,443.9443 22,441.9443 25,441.9443 C22,441.9443 20,439.9443 20,436.9443 C20,433.9443 22,431.9443 25,431.9443 C22,431.9443 20,429.9443 20,426.9443 C20,423.9443 22,421.9443 25,421.9443 C22,421.9443 20,419.9443 20,416.9443 C20,413.9443 22,411.9443 25,411.9443 C22,411.9443 20,409.9443 20,406.9443 C20,403.9443 22,401.9443 25,401.9443 C22,401.9443 20,399.9443 20,396.9443 C20,393.9443 22,391.9443 25,391.9443 C22,391.9443 20,389.9443 20,386.9443 C20,383.9443 22,381.9443 25,381.9443 C22,381.9443 20,379.9443 20,376.9443 C20,373.9443 22,371.9443 25,371.9443 C22,371.9443 20,369.9443 20,366.9443 C20,363.9443 22,361.9443 25,361.9443 C22,361.9443 20,359.9443 20,356.9443 C20,353.9443 22,351.9443 25,351.9443 C22,351.9443 20,349.9443 20,346.9443 C20,343.9443 22,341.9443 25,341.9443 C22,341.9443 20,339.9443 20,336.9443 C20,333.9443 22,331.9443 25,331.9443 C22,331.9443 20,329.9443 20,326.9443 C20,323.9443 22,321.9443 25,321.9443 C22,321.9443 20,319.9443 20,316.9443 C20,313.9443 22,311.9443 25,311.9443 C22,311.9443 20,309.9443 20,306.9443 C20,303.9443 22,301.9443 25,301.9443 C22,301.9443 20,299.9443 20,296.9443 C20,293.9443 22,291.9443 25,291.9443 C22,291.9443 20,289.9443 20,286.9443 C20,283.9443 22,281.9443 25,281.9443 C22,281.9443 20,279.9443 20,276.9443 C20,273.9443 22,271.9443 25,271.9443 C22,271.9443 20,269.9443 20,266.9443 C20,263.9443 22,261.9443 25,261.9443 C22,261.9443 20,259.9443 20,256.9443 C20,253.9443 22,251.9443 25,251.9443 C22,251.9443 20,249.9443 20,246.9443 C20,243.9443 22,241.9443 25,241.9443 C22,241.9443 20,239.9443 20,236.9443 C20,233.9443 22,231.9443 25,231.9443 C22,231.9443 20,229.9443 20,226.9443 C20,223.9443 22,221.9443 25,221.9443 C22,221.9443 20,219.9443 20,216.9443 C20,213.9443 22,211.9443 25,211.9443 C22,211.9443 20,209.9443 20,206.9443 C20,203.9443 22,201.9443 25,201.9443 C22,201.9443 20,199.9443 20,196.9443 C20,193.9443 22,191.9443 25,191.9443 C22,191.9443 20,189.9443 20,186.9443 C20,183.9443 22,181.9443 25,181.9443 C22,181.9443 20,179.9443 20,176.9443 C20,173.9443 22,171.9443 25,171.9443 C22,171.9443 20,169.9443 20,166.9443 C20,163.9443 22,161.9443 25,161.9443 C22,161.9443 20,159.9443 20,156.9443 C20,153.9443 22,151.9443 25,151.9443 C22,151.9443 20,149.9443 20,146.9443 C20,143.9443 22,141.9443 25,141.9443 C22,141.9443 20,139.9443 20,136.9443 C20,133.9443 22,131.9443 25,131.9443 C22,131.9443 20,129.9443 20,126.9443 C20,123.9443 22,121.9443 25,121.9443 C22,121.9443 20,119.9443 20,116.9443 C20,113.9443 22,111.9443 25,111.9443 C22,111.9443 20,109.9443 20,106.9443 C20,103.9443 22,101.9443 25,101.9443 C22,101.9443 20,99.9443 20,96.9443 C20,93.9443 22,91.9443 25,91.9443 C22,91.9443 20,89.9443 20,86.9443 C20,83.9443 22,81.9443 25,81.9443 C22,81.9443 20,79.9443 20,76.9443 C20,73.9443 22,71.9443 25,71.9443 C22,71.9443 20,69.9443 20,66.9443 C20,63.9443 22,61.9443 25,61.9443 C22,61.9443 20,59.9443 20,56.9443 C20,53.9443 22,51.9443 25,51.9443 " fill="#FFFFFF" filter="url(#fkfvyto)" style="stroke: #000000; stroke-width: 2.0;"/><!--entity juju--><ellipse cx="524" cy="77.9443" fill="#FEFECE" filter="url(#fkfvyto)" rx="8" ry="8" style="stroke: #A80036; stroke-width: 2.0;"/><text fill="#000000" font-family="sans-serif" font-size="14" lengthAdjust="spacingAndGlyphs" textLength="26" x="511" y="100.2471">JuJu</text><!--entity api--><ellipse cx="265" cy="297.9443" fill="#FEFECE" filter="url(#fkfvyto)" rx="8" ry="8" style="stroke: #A80036; stroke-width: 2.0;"/><text fill="#000000" font-family="sans-serif" font-size="14" lengthAdjust="spacingAndGlyphs" textLength="22" x="254" y="320.2471">API</text><!--entity storage--><ellipse cx="456" cy="407.9443" fill="#FEFECE" filter="url(#fkfvyto)" rx="8" ry="8" style="stroke: #A80036; stroke-width: 2.0;"/><text fill="#000000" font-family="sans-serif" font-size="14" lengthAdjust="spacingAndGlyphs" textLength="53" x="429.5" y="430.2471">Storage</text><!--entity transform--><ellipse cx="384" cy="297.9443" fill="#FEFECE" filter="url(#fkfvyto)" rx="8" ry="8" style="stroke: #A80036; stroke-width: 2.0;"/><text fill="#000000" font-family="sans-serif" font-size="14" lengthAdjust="spacingAndGlyphs" textLength="72" x="348" y="320.2471">Transform</text><!--entity publisher--><ellipse cx="524" cy="297.9443" fill="#FEFECE" filter="url(#fkfvyto)" rx="8" ry="8" style="stroke: #A80036; stroke-width: 2.0;"/><text fill="#000000" font-family="sans-serif" font-size="14" lengthAdjust="spacingAndGlyphs" textLength="64" x="492" y="320.2471">Publisher</text><!--entity website--><ellipse cx="65" cy="297.9443" fill="#FEFECE" filter="url(#fkfvyto)" rx="8" ry="8" style="stroke: #A80036; stroke-width: 2.0;"/><text fill="#000000" font-family="sans-serif" font-size="14" lengthAdjust="spacingAndGlyphs" textLength="53" x="38.5" y="320.2471">Website</text><!--entity JuJu--><rect fill="#6A9EFF" filter="url(#fkfvyto)" height="49.7808" style="stroke: #000000; stroke-width: 1.5;" width="72" x="572" y="60.9443"/><rect fill="#6A9EFF" height="10" style="stroke: #000000; stroke-width: 1.5;" width="15" x="624" y="65.9443"/><rect fill="#6A9EFF" height="2" style="stroke: #000000; stroke-width: 1.5;" width="4" x="622" y="67.9443"/><rect fill="#6A9EFF" height="2" style="stroke: #000000; stroke-width: 1.5;" width="4" x="622" y="71.9443"/><text fill="#000000" font-family="sans-serif" font-size="17" lengthAdjust="spacingAndGlyphs" textLength="32" x="587" y="97.0977">JuJu</text><!--entity WebUI--><rect fill="#6A9EFF" filter="url(#fkfvyto)" height="49.7808" style="stroke: #000000; stroke-width: 1.5;" width="92" x="127" y="280.9443"/><rect fill="#6A9EFF" height="10" style="stroke: #000000; stroke-width: 1.5;" width="15" x="199" y="285.9443"/><rect fill="#6A9EFF" height="2" style="stroke: #000000; stroke-width: 1.5;" width="4" x="197" y="287.9443"/><rect fill="#6A9EFF" height="2" style="stroke: #000000; stroke-width: 1.5;" width="4" x="197" y="291.9443"/><text fill="#000000" font-family="sans-serif" font-size="17" lengthAdjust="spacingAndGlyphs" textLength="52" x="142" y="317.0977">WebUI</text><!--entity Orchestra--><rect fill="#6A9EFF" filter="url(#fkfvyto)" height="49.7808" style="stroke: #000000; stroke-width: 1.5;" width="120" x="591" y="280.9443"/><rect fill="#6A9EFF" height="10" style="stroke: #000000; stroke-width: 1.5;" width="15" x="691" y="285.9443"/><rect fill="#6A9EFF" height="2" style="stroke: #000000; stroke-width: 1.5;" width="4" x="689" y="287.9443"/><rect fill="#6A9EFF" height="2" style="stroke: #000000; stroke-width: 1.5;" width="4" x="689" y="291.9443"/><text fill="#000000" font-family="sans-serif" font-size="17" lengthAdjust="spacingAndGlyphs" textLength="80" x="606" y="317.0977">Orchestra</text><!--entity Transform--><rect fill="#6A9EFF" filter="url(#fkfvyto)" height="49.7808" style="stroke: #000000; stroke-width: 1.5;" width="126" x="304" y="170.9443"/><rect fill="#6A9EFF" height="10" style="stroke: #000000; stroke-width: 1.5;" width="15" x="410" y="175.9443"/><rect fill="#6A9EFF" height="2" style="stroke: #000000; stroke-width: 1.5;" width="4" x="408" y="177.9443"/><rect fill="#6A9EFF" height="2" style="stroke: #000000; stroke-width: 1.5;" width="4" x="408" y="181.9443"/><text fill="#000000" font-family="sans-serif" font-size="17" lengthAdjust="spacingAndGlyphs" textLength="86" x="319" y="207.0977">Transform</text><!--entity Publisher--><rect fill="#6A9EFF" filter="url(#fkfvyto)" height="49.7808" style="stroke: #000000; stroke-width: 1.5;" width="117" x="465.5" y="170.9443"/><rect fill="#6A9EFF" height="10" style="stroke: #000000; stroke-width: 1.5;" width="15" x="562.5" y="175.9443"/><rect fill="#6A9EFF" height="2" style="stroke: #000000; stroke-width: 1.5;" width="4" x="560.5" y="177.9443"/><rect fill="#6A9EFF" height="2" style="stroke: #000000; stroke-width: 1.5;" width="4" x="560.5" y="181.9443"/><text fill="#000000" font-family="sans-serif" font-size="17" lengthAdjust="spacingAndGlyphs" textLength="77" x="480.5" y="207.0977">Publisher</text><!--entity Storage--><rect fill="#6A9EFF" filter="url(#fkfvyto)" height="49.7808" style="stroke: #000000; stroke-width: 1.5;" width="101" x="581.5" y="390.9443"/><rect fill="#6A9EFF" height="10" style="stroke: #000000; stroke-width: 1.5;" width="15" x="662.5" y="395.9443"/><rect fill="#6A9EFF" height="2" style="stroke: #000000; stroke-width: 1.5;" width="4" x="660.5" y="397.9443"/><rect fill="#6A9EFF" height="2" style="stroke: #000000; stroke-width: 1.5;" width="4" x="660.5" y="401.9443"/><text fill="#000000" font-family="sans-serif" font-size="17" lengthAdjust="spacingAndGlyphs" textLength="61" x="596.5" y="427.0977">Storage</text><path d="M537.125,85.9443 C548.661,85.9443 560.196,85.9443 571.732,85.9443 " fill="none" style="stroke: #222266; stroke-width: 1.0;"/><path d="M91.5781,305.9443 C103.3461,305.9443 115.114,305.9443 126.882,305.9443 " fill="none" style="stroke: #222266; stroke-width: 1.0;"/><path d="M505.738,89.9863 C463.755,97.6653 358.419,120.8923 286,170.9443 C242.941,200.7043 206.733,250.9643 187.607,280.7423 " fill="none" style="stroke: #222266; stroke-width: 1.0; stroke-dasharray: 7.0,7.0;"/><polygon fill="#222266" points="510.77,89.0863,501.2058,86.7356,505.8483,89.9678,502.6161,94.6103,510.77,89.0863" style="stroke: #222266; stroke-width: 1.0;"/><path d="M219.099,324.5363 C276.908,346.5983 374.481,383.8347 424.446,402.9025 " fill="none" style="stroke: #222266; stroke-width: 1.0; stroke-dasharray: 7.0,7.0;"/><polygon fill="#222266" points="429.13,404.69,422.146,397.7457,424.4582,402.9085,419.2954,405.2207,429.13,404.69" style="stroke: #222266; stroke-width: 1.0;"/><path d="M219,305.9443 C228.895,305.9443 238.79,305.9443 248.685,305.9443 " fill="none" style="stroke: #222266; stroke-width: 1.0; stroke-dasharray: 7.0,7.0;"/><polygon fill="#222266" points="253.859,305.9443,244.859,301.9443,248.859,305.9443,244.859,309.9443,253.859,305.9443" style="stroke: #222266; stroke-width: 1.0;"/><path d="M276.147,295.3023 C291.022,281.9133 318.833,259.6243 347.5,250.9443 C436.403,224.0263 466.818,226.7463 556.5,250.9443 C578.493,256.8783 600.631,269.3343 617.947,280.8933 " fill="none" style="stroke: #222266; stroke-width: 1.0;"/><path d="M409.407,288.7163 C430.586,275.4563 462.1,258.2093 492.5,250.9443 C520.165,244.3323 529.038,243.5343 556.5,250.9443 C578.493,256.8783 600.631,269.3343 617.947,280.8933 " fill="none" style="stroke: #222266; stroke-width: 1.0;"/><path d="M556.246,305.9443 C567.72,305.9443 579.194,305.9443 590.668,305.9443 " fill="none" style="stroke: #222266; stroke-width: 1.0;"/><path d="M541.277,102.3553 C558.151,118.1753 583.618,144.1973 600,170.9443 C621.777,206.4993 636.89,252.8933 644.737,280.7213 " fill="none" style="stroke: #222266; stroke-width: 1.0; stroke-dasharray: 7.0,7.0;"/><polygon fill="#222266" points="537.183,98.5593,541.0632,107.6116,540.8496,101.9588,546.5024,101.7451,537.183,98.5593" style="stroke: #222266; stroke-width: 1.0;"/><path d="M607.238,331.1813 C570.742,351.3943 519.637,379.699 487.178,397.6767 " fill="none" style="stroke: #222266; stroke-width: 1.0; stroke-dasharray: 7.0,7.0;"/><polygon fill="#222266" points="482.528,400.252,492.3391,399.3901,486.9018,397.8293,488.4627,392.392,482.528,400.252" style="stroke: #222266; stroke-width: 1.0;"/><path d="M506.755,98.8073 C481.647,116.0783 434.479,148.5253 401.933,170.9133 " fill="none" style="stroke: #222266; stroke-width: 1.0; stroke-dasharray: 7.0,7.0;"/><polygon fill="#222266" points="510.884,95.9663,501.202,97.7718,506.7646,98.8002,505.7362,104.3628,510.884,95.9663" style="stroke: #222266; stroke-width: 1.0;"/><path d="M349.953,221.1363 C332.651,248.9353 310.925,295.3023 330,330.9443 C349.9,368.1283 394.337,391.6953 424.744,404.1097 " fill="none" style="stroke: #222266; stroke-width: 1.0; stroke-dasharray: 7.0,7.0;"/><polygon fill="#222266" points="429.498,406.0068,422.6211,398.9564,424.854,404.1539,419.6565,406.3868,429.498,406.0068" style="stroke: #222266; stroke-width: 1.0;"/><path d="M370.815,221.1813 C373.761,239.8933 377.797,265.5393 380.626,283.5073 " fill="none" style="stroke: #222266; stroke-width: 1.0; stroke-dasharray: 7.0,7.0;"/><polygon fill="#222266" points="381.462,288.8213,384.0143,279.3089,380.6848,283.8821,376.1116,280.5525,381.462,288.8213" style="stroke: #222266; stroke-width: 1.0;"/><path d="M524,108.6663 C524,126.6363 524,152.1403 524,170.7573 " fill="none" style="stroke: #222266; stroke-width: 1.0; stroke-dasharray: 7.0,7.0;"/><polygon fill="#222266" points="524,103.3473,520,112.3473,524,108.3473,528,112.3473,524,103.3473" style="stroke: #222266; stroke-width: 1.0;"/><path d="M506.522,221.0733 C495.699,237.2323 482.482,259.4153 475,280.9443 C461.695,319.2303 457.694,366.7613 456.499,393.6955 " fill="none" style="stroke: #222266; stroke-width: 1.0; stroke-dasharray: 7.0,7.0;"/><polygon fill="#222266" points="456.296,398.7988,460.6516,389.9654,456.4953,393.8028,452.6579,389.6465,456.296,398.7988" style="stroke: #222266; stroke-width: 1.0;"/><path d="M524,221.1813 C524,239.8933 524,265.5393 524,283.5073 " fill="none" style="stroke: #222266; stroke-width: 1.0; stroke-dasharray: 7.0,7.0;"/><polygon fill="#222266" points="524,288.8213,528,279.8213,524,283.8213,520,279.8213,524,288.8213" style="stroke: #222266; stroke-width: 1.0;"/><path d="M482.812,415.9443 C515.642,415.9443 548.471,415.9443 581.3,415.9443 " fill="none" style="stroke: #222266; stroke-width: 1.0;"/><path d="M541.396,101.2803 C561.099,117.6843 593.979,145.5623 621,170.9443 C670.937,217.8523 703.072,217.5263 729,280.9443 C737.41,301.5133 738.234,310.7313 729,330.9443 C717.567,355.9683 694.59,376.3977 673.869,390.8414 " fill="none" style="stroke: #222266; stroke-width: 1.0; stroke-dasharray: 7.0,7.0;"/><polygon fill="#222266" points="537.159,97.7613,541.5245,106.5898,541.0046,100.9569,546.6375,100.4369,537.159,97.7613" style="stroke: #222266; stroke-width: 1.0;"/></g></svg>